<svg width="24" height="24" viewBox="0 0 416 416" fill="none" xmlns="http://www.w3.org/2000/svg">
    <path d="M184.8 0.999799C138 6.4998 93.3999 27.6998 61.2999 59.7998C28.6999 92.3998 7.99994 134.3 1.49994 180.7C-0.300059 193.2 -0.500059 221.5 0.999941 233.9C5.79994 271.7 21.1999 308.1 44.9999 338C53.2999 348.3 71.7999 366.5 81.9999 374.2C110.6 395.8 143.4 409.4 179.2 414.5C192.7 416.4 220.8 416.4 235.5 414.5C271.1 409.8 306.7 395.1 335.5 373.2C338.8 370.6 346.8 363.4 353.4 357C386.8 324.5 408.4 281.5 414.5 235.2C416.2 222.1 416.5 196.2 415 184C409 135.8 386.9 91.3998 352.4 57.9998C319.8 26.4998 279.7 7.2998 234.7 1.4998C222.3 -0.100202 196.5 -0.300202 184.8 0.999799ZM238.5 35.3998C264.8 40.1998 288 49.9998 310.5 65.8998C321.3 73.4998 342 94.3998 350.2 106C363.9 125.3 374.8 150.5 380.1 175C382.1 184 382.4 188.5 382.5 207C382.5 232.2 381.2 241 374.4 261.9C354.4 323 304.5 367.3 241.4 380.1C224.5 383.5 196.6 383.9 179.5 381C154.2 376.8 127.7 365.9 107 351.3C94.6999 342.6 73.3999 321.2 64.7999 309C20.3999 246 22.3999 161.6 69.6999 100.5C97.8999 64.0998 139.4 40.5998 187 33.9998C196.8 32.6998 228 33.4998 238.5 35.3998Z" fill="#d6d0cd"/>
    <path d="M192.5 104.6C168.2 108.6 150.6 122.9 142.4 145.6C137.4 159.3 141 169 152.1 172C160.9 174.4 169.4 169.2 172.6 159.7C175.8 150.1 181.9 142.9 189.8 139.3C194.9 137 209.9 137.1 216 139.4C230.4 144.8 237.4 157.8 232.5 169.7C231.6 171.8 224.2 180.2 214.7 189.9C205.8 199 196.9 208.9 195.1 211.7C189.9 219.9 186.8 230.1 186.2 240.7C185.8 248.7 186 250.4 187.9 254.4C190.8 260.4 195.8 263.4 202.5 263.4C213 263.4 218.1 257.6 219.1 244.4C220 232.7 222.4 228.9 239.7 212C254.6 197.4 260.3 190 264.2 180.1C266.1 175.3 266.4 172.6 266.4 161.5C266.4 149.6 266.2 148 263.7 142C260.2 133.6 252.5 123.4 245.8 118.2C239.7 113.5 229.5 108.5 221.8 106.4C216.3 104.9 197.8 103.8 192.5 104.6Z" fill="#d6d0cd"/>
    <path d="M195.5 280.4C179.7 287.7 185 311.4 202.5 311.4C218.8 311.4 225 291.6 211.7 281.6C208.4 279.1 199.6 278.4 195.5 280.4Z" fill="#d6d0cd"/>
</svg>